<?xml version="1.0" standalone="no"?>
<!DOCTYPE svg PUBLIC "-//W3C//DTD SVG 20010904//EN"
 "http://www.w3.org/TR/2001/REC-SVG-20010904/DTD/svg10.dtd">
<svg version="1.0" xmlns="http://www.w3.org/2000/svg"
 width="500.000000pt" height="500.000000pt" viewBox="0 0 500.000000 500.000000"
 preserveAspectRatio="xMidYMid meet">
<metadata>
Created by potrace 1.14, written by Peter Selinger 2001-2017
</metadata>
<g transform="translate(0.000000,500.000000) scale(0.100000,-0.100000)"
fill="#000000" stroke="none">
<path d="M2348 4915 c-2 -2 -37 -6 -78 -9 -94 -9 -173 -20 -190 -26 -3 -1 -8
-2 -11 -2 -4 1 -22 -3 -40 -9 -19 -5 -49 -11 -67 -14 -19 -2 -48 -9 -65 -14
-18 -6 -72 -22 -122 -37 -49 -15 -94 -30 -100 -33 -5 -4 -35 -15 -65 -26 -30
-10 -100 -41 -155 -68 -55 -27 -100 -48 -100 -46 0 6 -69 -44 -77 -56 -4 -5
-8 -6 -8 -2 0 9 -66 -29 -88 -50 -7 -7 -18 -13 -23 -13 -5 0 -15 -4 -22 -10
-56 -46 -76 -60 -85 -60 -5 0 -18 -11 -28 -25 -10 -14 -23 -25 -27 -25 -5 0
-14 -6 -21 -12 -7 -7 -39 -35 -70 -62 -94 -81 -146 -134 -146 -147 0 -7 -3
-10 -6 -6 -8 8 -34 -18 -34 -33 0 -6 -4 -9 -9 -6 -10 6 -26 -23 -22 -39 2 -5
0 -7 -4 -3 -8 8 -29 -13 -70 -67 -16 -22 -37 -49 -47 -59 -10 -11 -18 -23 -18
-27 0 -4 -6 -14 -13 -21 -15 -15 -77 -107 -77 -114 0 -2 -13 -23 -30 -45 -16
-23 -27 -45 -24 -50 3 -5 0 -9 -6 -9 -10 0 -27 -33 -28 -54 0 -5 -5 -12 -10
-15 -25 -16 -173 -385 -197 -494 -2 -12 -11 -49 -19 -81 -8 -33 -13 -63 -10
-68 3 -4 0 -8 -5 -8 -6 0 -10 -3 -9 -7 2 -8 -11 -112 -18 -148 -26 -127 -23
-519 6 -680 6 -33 13 -73 16 -90 2 -16 6 -39 9 -50 2 -11 5 -23 5 -27 1 -4 6
-22 11 -40 6 -18 12 -44 15 -57 7 -33 62 -203 79 -246 9 -19 15 -36 14 -37 0
-2 13 -30 29 -63 16 -33 42 -86 57 -117 15 -32 31 -58 36 -58 5 0 8 -4 6 -8
-3 -11 52 -112 62 -112 4 0 8 -6 8 -13 0 -17 112 -177 124 -177 6 0 8 -4 5 -8
-2 -4 9 -23 25 -42 152 -176 209 -236 210 -223 0 4 3 1 7 -8 7 -16 140 -134
196 -174 16 -11 34 -26 42 -33 8 -7 14 -11 14 -7 0 3 12 -6 27 -20 15 -14 31
-25 35 -25 3 0 21 -12 38 -26 17 -15 33 -24 36 -21 3 3 17 -6 31 -19 14 -13
29 -24 33 -24 5 0 36 -16 69 -34 34 -19 61 -32 61 -28 0 4 4 2 8 -4 4 -5 23
-17 42 -26 125 -57 153 -69 168 -71 9 -2 27 -9 40 -15 12 -7 27 -10 32 -7 6 3
10 2 10 -2 0 -10 116 -48 143 -46 9 0 17 -3 17 -7 0 -4 17 -11 38 -15 20 -5
44 -9 52 -11 8 -2 31 -6 50 -8 19 -3 46 -9 60 -12 14 -4 37 -8 53 -10 15 -2
39 -6 55 -9 128 -24 536 -24 646 0 11 2 39 7 61 11 72 10 130 21 130 24 0 1
15 3 33 6 18 2 42 8 52 14 10 5 27 10 38 10 11 0 37 8 58 17 22 9 42 16 46 15
23 -6 409 161 416 179 2 5 10 9 18 9 8 0 14 5 14 11 0 5 4 8 8 5 12 -7 203
119 195 130 -5 5 -4 6 1 2 8 -7 52 18 82 47 6 5 29 23 50 40 21 16 56 47 78
67 21 21 40 38 41 38 9 0 125 121 125 130 0 6 4 10 9 10 15 0 198 226 218 270
4 8 11 20 15 25 48 59 218 375 218 405 0 6 4 18 9 28 10 19 18 42 19 56 0 5 4
12 9 15 8 5 40 101 64 191 5 19 11 42 14 50 8 31 34 156 39 190 23 159 29 225
31 365 1 88 -2 196 -7 240 -5 44 -10 98 -12 120 -2 22 -6 49 -9 60 -3 11 -8
38 -12 60 -5 38 -41 194 -51 225 -3 8 -5 15 -4 15 2 0 -59 172 -75 210 -48
118 -110 244 -164 334 -45 76 -149 232 -161 241 -3 3 -13 15 -22 28 -73 107
-413 434 -431 415 -4 -3 -7 -1 -7 5 0 10 -91 80 -97 74 -2 -1 -14 7 -26 19
-79 67 -365 209 -562 277 -111 39 -316 89 -430 106 -107 15 -485 31 -497 21z"/>
</g>
</svg>
